<svg xmlns="http://www.w3.org/2000/svg" width="1320" height="320" viewBox="0 0 1320 320" role="img" aria-label="DiagramPreview logo">
  <rect width="1320" height="320" rx="36" fill="#ffffff"/>
  <g transform="translate(48 40) scale(.47)">
    <rect width="512" height="512" rx="104" fill="#0f172a"/>
    <path d="M128 148h106c25 0 45 20 45 45v22h45c29 0 52 23 52 52v97" fill="none" stroke="#06b6d4" stroke-width="28" stroke-linecap="round" stroke-linejoin="round"/>
    <path d="M151 148h72c31 0 56 25 56 56v126" fill="none" stroke="#2563eb" stroke-width="28" stroke-linecap="round"/>
    <rect x="96" y="104" width="112" height="88" rx="22" fill="#f8fafc"/>
    <rect x="304" y="218" width="112" height="88" rx="22" fill="#f8fafc"/>
    <rect x="200" y="320" width="112" height="88" rx="22" fill="#f8fafc"/>
    <circle cx="152" cy="148" r="16" fill="#2563eb"/>
    <circle cx="360" cy="262" r="16" fill="#06b6d4"/>
    <circle cx="256" cy="364" r="16" fill="#7c3aed"/>
  </g>
  <text x="330" y="148" fill="#0f172a" font-family="Inter, ui-sans-serif, system-ui, sans-serif" font-size="84" font-weight="800">DiagramPreview</text>
  <text x="334" y="214" fill="#475569" font-family="Inter, ui-sans-serif, system-ui, sans-serif" font-size="32" font-weight="600">Developer diagram preview and conversion tools</text>
</svg>
