<svg xmlns="http://www.w3.org/2000/svg" width="1200" height="630" viewBox="0 0 1200 630" role="img" aria-label="DiagramPreview social image">
  <rect width="1200" height="630" fill="#0f172a"/>
  <rect x="56" y="56" width="1088" height="518" rx="28" fill="#f8fafc"/>
  <rect x="96" y="110" width="410" height="354" rx="14" fill="#111827"/>
  <rect x="124" y="144" width="180" height="16" rx="8" fill="#38bdf8"/>
  <rect x="124" y="188" width="300" height="12" rx="6" fill="#64748b"/>
  <rect x="124" y="222" width="244" height="12" rx="6" fill="#64748b"/>
  <rect x="124" y="256" width="330" height="12" rx="6" fill="#64748b"/>
  <rect x="124" y="310" width="210" height="12" rx="6" fill="#94a3b8"/>
  <rect x="124" y="344" width="276" height="12" rx="6" fill="#94a3b8"/>
  <rect x="558" y="110" width="546" height="354" rx="14" fill="#ffffff" stroke="#cbd5e1" stroke-width="2"/>
  <path d="M690 236h104c32 0 58 26 58 58v26h64" fill="none" stroke="#06b6d4" stroke-width="12" stroke-linecap="round"/>
  <path d="M706 236h70c42 0 76 34 76 76v96" fill="none" stroke="#2563eb" stroke-width="12" stroke-linecap="round"/>
  <rect x="636" y="194" width="128" height="82" rx="12" fill="#eff6ff" stroke="#bfdbfe" stroke-width="2"/>
  <rect x="896" y="282" width="128" height="82" rx="12" fill="#ecfeff" stroke="#a5f3fc" stroke-width="2"/>
  <rect x="780" y="396" width="128" height="82" rx="12" fill="#f5f3ff" stroke="#ddd6fe" stroke-width="2"/>
  <text x="96" y="528" fill="#0f172a" font-family="Inter, ui-sans-serif, system-ui, sans-serif" font-size="58" font-weight="800">DiagramPreview</text>
  <text x="98" y="570" fill="#475569" font-family="Inter, ui-sans-serif, system-ui, sans-serif" font-size="24" font-weight="600">Mermaid, PlantUML, Markdown, Graphviz, D2, draw.io, JSON and YAML online</text>
</svg>
