<svg xmlns="http://www.w3.org/2000/svg" width="1200" height="675" viewBox="0 0 1200 675">
      <rect width="1200" height="675" fill="#f8fafc"/>
      <rect x="64" y="64" width="1072" height="547" rx="28" fill="#ffffff" stroke="#cbd5e1" stroke-width="2"/>
      <rect x="106" y="120" width="390" height="360" rx="18" fill="#0f172a"/>
      <rect x="138" y="158" width="210" height="14" rx="7" fill="#7c3aed"/>
      <rect x="138" y="204" width="300" height="12" rx="6" fill="#64748b"/>
      <rect x="138" y="238" width="250" height="12" rx="6" fill="#64748b"/>
      <rect x="138" y="292" width="310" height="12" rx="6" fill="#94a3b8"/>
      <rect x="138" y="326" width="220" height="12" rx="6" fill="#94a3b8"/>
      <path d="M690 240h90c34 0 62 28 62 62v40h88" fill="none" stroke="#7c3aed" stroke-width="16" stroke-linecap="round"/>
      <path d="M706 240h58c44 0 78 34 78 78v104" fill="none" stroke="#2563eb" stroke-width="16" stroke-linecap="round"/>
      <rect x="622" y="190" width="142" height="94" rx="16" fill="#eff6ff" stroke="#bfdbfe" stroke-width="2"/>
      <rect x="900" y="296" width="142" height="94" rx="16" fill="#ecfeff" stroke="#a5f3fc" stroke-width="2"/>
      <rect x="778" y="422" width="142" height="94" rx="16" fill="#f5f3ff" stroke="#ddd6fe" stroke-width="2"/>
      <text x="106" y="548" fill="#0f172a" font-family="Inter, ui-sans-serif, system-ui, sans-serif" font-size="58" font-weight="800">Markdown + Mermaid</text>
      <text x="108" y="590" fill="#475569" font-family="Inter, ui-sans-serif, system-ui, sans-serif" font-size="26" font-weight="600">Docs with diagrams beside code</text>
    </svg>